<?xml version="1.0" ?><!-- Uploaded to: SVG Repo, www.svgrepo.com, Generator: SVG Repo Mixer Tools -->
<svg width="800px" height="800px" viewBox="0 0 32 32" data-name="Layer 1" id="Layer_1" xmlns="http://www.w3.org/2000/svg"><defs><style>.cls-1{fill:none;stroke:#231f20;stroke-linejoin:round;}</style></defs><title/><path class="cls-1" d="M20.5,16.75V27.44a1.05,1.05,0,0,1-1.06,1.06H12.57a1.07,1.07,0,0,1-1.07-1.07V16.75a3.23,3.23,0,0,1,2.14-3.08,3.09,3.09,0,0,1,1-.17h2.72a3.09,3.09,0,0,1,1,.17A3.23,3.23,0,0,1,20.5,16.75Z"/><path class="cls-1" d="M18.5,9.5v4.16a3.73,3.73,0,0,0-1.06-.16H14.56a3.73,3.73,0,0,0-1.06.16V9.5Z"/><path class="cls-1" d="M16,3.5h0A1.5,1.5,0,0,1,17.5,5V9.5a0,0,0,0,1,0,0h-3a0,0,0,0,1,0,0V5A1.5,1.5,0,0,1,16,3.5Z"/></svg>